<svg version="1.1" xmlns="http://www.w3.org/2000/svg" xmlns:xlink="http://www.w3.org/1999/xlink" width="491.55709" height="365.86611" viewBox="0,0,491.55709,365.86611"><g transform="translate(6.30158,1.00203)"><g data-paper-data="{&quot;isPaintingLayer&quot;:true}" fill="none" fill-rule="nonzero" stroke="none" stroke-width="none" stroke-linecap="butt" stroke-linejoin="miter" stroke-miterlimit="10" stroke-dasharray="" stroke-dashoffset="0" font-family="none" font-weight="none" font-size="none" text-anchor="none" style="mix-blend-mode: normal"><path d="M0.05001,0h480.9419v290l-479.98805,-15z" data-paper-data="{&quot;origPos&quot;:null}" id="ID0.3961414685472846" fill="#99ffff" stroke="#ccffff" stroke-width="2.00406"/><path d="M444.99118,247.42646c12.05256,-0.53468 25.61835,4.24571 33.00294,13.54706c7.86306,9.85909 5.7085,24.56341 5.04412,37.03823c0.32427,12.83656 1.65303,27.53944 -6.05294,37.975c-7.11941,9.66597 -20.08712,16.72053 -31.99412,16.64559c-17.7135,-0.11097 -37.89573,-5.89441 -50.93982,-15.41626c-13.04409,-9.52329 -21.119,-22.67403 -21.119,-37.18667c0,-14.51265 8.07491,-27.66338 21.119,-37.18668c13.04409,-9.52185 33.23929,-14.64523 50.93982,-15.41626z" id="ID0.42040406772866845" fill="#00cc44" stroke="#00cc44" stroke-width="2.88235"/><path d="M80.01765,237.57646c15.41794,0 29.38853,3.84941 39.50435,10.06776c10.11582,6.21929 16.378,14.80753 16.378,24.28518c0,9.47765 -6.26218,18.06588 -16.378,24.28517c-10.11582,6.21835 -24.08641,10.06776 -39.50435,10.06776c-15.41794,0 -29.38853,-3.84941 -39.50435,-10.06776c-10.11582,-6.21929 -16.378,-14.80753 -16.378,-24.28517c0,-9.47765 6.26218,-18.06588 16.378,-24.28518c10.11582,-6.21835 24.08641,-10.06776 39.50435,-10.06776z" id="ID0.42040406772866845" fill="#00cc44" stroke="#00cc44" stroke-width="2.06637"/><path d="M193.49118,229.87646c19.88103,0 37.89573,5.89441 50.93982,15.41627c13.04409,9.52329 21.119,22.67403 21.119,37.18668c0,14.51265 -8.07491,27.66338 -21.119,37.18667c-13.04409,9.52185 -31.05879,15.41626 -50.93982,15.41626c-19.88103,0 -37.89573,-5.89441 -50.93982,-15.41626c-13.04409,-9.52329 -21.119,-22.67403 -21.119,-37.18667c0,-14.51265 8.07491,-27.66338 21.119,-37.18668c13.04409,-9.52185 31.05879,-15.41627 50.93982,-15.41627z" id="ID0.42040406772866845" fill="#00cc44" stroke="#00cc44" stroke-width="2.88235"/><path d="M321.49118,237.87646c19.88103,0 37.89573,5.89441 50.93982,15.41627c13.04409,9.52329 21.119,22.67403 21.119,37.18668c0,14.51265 -8.07491,27.66338 -21.119,37.18667c-13.04409,9.52185 -31.05879,15.41626 -50.93982,15.41626c-19.88103,0 -37.89573,-5.89441 -50.93982,-15.41626c-13.04409,-9.52329 -21.119,-22.67403 -21.119,-37.18667c0,-14.51265 8.07491,-27.66338 21.119,-37.18668c13.04409,-9.52185 31.05879,-15.41627 50.93982,-15.41627z" id="ID0.42040406772866845" fill="#00cc44" stroke="#00cc44" stroke-width="2.88235"/><path d="M-2.00187,244.99704c5.94523,-3.21318 16.1986,10.32094 22.58866,19.19718c4.81531,6.67388 10.26528,14.98541 10.26528,24.28518c0,9.29976 -4.03214,20.24659 -10.26528,24.28517l-20.5922,-3.76753l-0.98071,-34.9647c-0.32153,-11.64329 -5.85697,-27.32894 -1.01574,-29.03529z" id="ID0.42040406772866845" fill="#00cc44" stroke="#00cc44" stroke-width="1.65923"/><path d="M2,279l470,-3l8,60l-480,5z" id="ID0.03885363461449742" fill="#00cc44" stroke="#00cc44" stroke-width="2"/><text transform="translate(334.00001,23.05278) scale(0.28607,0.27964)" font-size="40" xml:space="preserve" data-paper-data="{&quot;origPos&quot;:null}" fill="#169595" fill-rule="nonzero" stroke="none" stroke-width="1" stroke-linecap="butt" stroke-linejoin="miter" stroke-miterlimit="10" stroke-dasharray="" stroke-dashoffset="0" font-family="Pixel" font-weight="normal" text-anchor="start" style="mix-blend-mode: normal"><tspan x="0" dy="0">Created by 17MIS1194</tspan></text><path d="M-4.98752,338.61669h484.97502v24.93333h-484.97502z" id="ID0.33250138349831104" fill="#663b00" stroke="#663b00" stroke-width="2.62812"/></g></g></svg>